<?xml version="1.0" encoding="UTF-8"?>
<svg viewBox="0 0 40 40" xmlns="http://www.w3.org/2000/svg">
<circle cx="16" cy="24" r="16" fill="#D3E7ED"/>
<path d="m32.3 5h-21.6c-1.485 0-2.7 1.26-2.7 2.8v15.4c0 1.54 1.215 2.8 2.7 2.8h21.6c1.485 0 2.7-1.26 2.7-2.8v-15.4c0-1.54-1.215-2.8-2.7-2.8zm1.35 18.2c0 0.7-0.54 1.4-1.35 1.4h-21.6c-0.675 0-1.35-0.56-1.35-1.4v-15.4c0-0.7 0.54-1.4 1.35-1.4h21.6c0.675 0 1.35 0.56 1.35 1.4v15.4z" fill="#A9C4CD"/>
<path d="m30.321 19h-17.643c-0.4072 0-0.6786 0.4-0.6786 1s0.2714 1 0.6786 1h17.643c0.4072 0 0.6786-0.4 0.6786-1s-0.2714-1-0.6786-1z" fill="#A9C4CD"/>
<path d="m37.368 0h-19.737c-1.4474 0-2.6316 1.26-2.6316 2.8v1.26c0 0.42 0.2632 0.7 0.6579 0.7s0.6579-0.28 0.6579-0.56v-1.4c0-0.7 0.5263-1.4 1.3158-1.4h19.737c0.6579 0 1.3158 0.56 1.3158 1.4v15.4c0 0.7-0.5263 1.4-1.3158 1.4h-1.3158c-0.3947 0-0.6579 0.28-0.6579 0.7s0.2632 0.7 0.6579 0.7h1.3158c1.4474 0 2.6316-1.26 2.6316-2.8v-15.4c0-1.54-1.1842-2.8-2.6316-2.8z" fill="#A9C4CD"/>
</svg>
