<?xml version="1.0" encoding="UTF-8"?>
<svg fill="none" viewBox="0 0 40 40" xmlns="http://www.w3.org/2000/svg">
<circle cx="16" cy="24" r="16" fill="#D3E7ED"/>
<path d="m36.707 18.897h-1e-4l-0.0073 0.0097-8.9062 11.907-0.0098 0.0131-0.0094 0.0135c-0.1489 0.2132-0.4768 0.2132-0.6257 0l-0.0063-0.0091-0.0065-0.0088c-1.293-1.7679-3.5033-4.7295-5.3876-7.2454-0.9428-1.2588-1.8049-2.4073-2.4313-3.2411-0.3133-0.4169-0.5676-0.7552-0.7436-0.9892l-0.2029-0.2698-0.0529-0.0702-0.0135-0.018-0.0034-0.0045-8e-4 -0.0011-3e-4 -3e-4c0-1e-4 0-1e-4 -0.7767 0.5845l0.7767-0.5847-0.0056-0.0072c-1.4376-1.8739-2.2934-4.1693-2.2934-6.6765 0-6.245 5.1592-11.299 11.5-11.299 6.345 0 11.5 5.0578 11.5 11.22 0 2.5072-0.8558 4.8026-2.2934 6.6765z" stroke="#A9C4CD" stroke-width="2"/>
<circle cx="28" cy="13" r="3" stroke="#A9C4CD" stroke-width="2"/>
</svg>
