<svg width="60" height="33" viewBox="0 0 60 33" fill="none" xmlns="http://www.w3.org/2000/svg">
<g clip-path="url(#clip0_13494_1997)">
<path d="M59.0283 12.7502V20.7282H56.1148V15.1334H53.309V20.7282H50.3955V12.7502H59.0283Z" fill="#B6C6CB"/>
<path d="M49.0114 17.1924C49.0114 19.5156 47.0076 21.0484 44.3096 21.0484C41.5183 21.0484 39.4834 19.4256 39.4834 15.7477C39.4834 12.5921 41.5701 9.99084 44.6598 9.94082C46.0129 9.94082 48.9203 9.87878 48.9203 9.87878L47.6106 12.1999C47.6106 12.1999 45.2939 12.2039 44.9872 12.2039C43.6548 12.2039 42.4425 13.1724 42.2726 14.4971C42.9813 13.8568 43.9221 13.4846 45.0639 13.4846C47.5319 13.4866 49.0114 14.9453 49.0114 17.1924ZM46.0212 17.1924C46.0212 16.1499 45.327 15.5396 44.3241 15.5396C43.2901 15.5396 42.5979 16.1639 42.5979 17.2064C42.5979 18.1889 43.2921 18.9033 44.3241 18.9033C45.4037 18.9053 46.0212 18.1309 46.0212 17.1924Z" fill="#B6C6CB"/>
<path d="M37.1727 18.317C37.1727 18.317 36.4682 18.6992 35.4175 18.7732C34.2074 18.8052 33.1319 18.0869 33.1319 16.8062C33.1319 15.5576 34.083 14.8413 35.3865 14.8413C36.1863 14.8413 37.2452 15.3655 37.2452 15.3655C37.2452 15.3655 38.0202 14.0228 38.4202 13.3545C37.6866 12.8282 36.7065 12.5401 35.5688 12.5401C32.6967 12.5401 30.4712 14.309 30.4712 16.7922C30.4712 19.3075 32.562 21.0344 35.5688 20.9823C36.4101 20.9523 37.5685 20.6742 38.2751 20.246L37.1727 18.317Z" fill="#B6C6CB"/>
<path fill-rule="evenodd" clip-rule="evenodd" d="M15.4848 16.9589L15.4641 7.79973L19.2562 10.0208L15.4849 12.2459V16.7922L26.9752 10.0148L11.4502 0.874268V14.5785L0.0283203 7.83972L0.0345369 25.9047L4.05463 18.9893V14.7672L7.88223 17.0271L7.63347 16.8802L4.05463 18.9893L0.0345369 25.9047L11.4502 19.1699L11.4523 32.8743L15.4848 25.9428V21.5158L19.2481 23.7377L26.9609 23.7297L15.4848 16.9589ZM11.466 19.1606L13.2021 20.168L11.4809 19.1518L11.466 19.1606Z" fill="#B6C6CB"/>
<path d="M11.4523 32.8743L15.4848 25.9428L19.2481 23.7377L26.9609 23.7297L11.4523 32.8743Z" fill="#B6C6CB"/>
</g>
<defs>
<clipPath id="clip0_13494_1997">
<rect width="59" height="32" fill="white" transform="translate(0.0283203 0.874268)"/>
</clipPath>
</defs>
</svg>
